<svg width="77" height="61" viewBox="0 0 77 61" fill="none" xmlns="http://www.w3.org/2000/svg">
<g clip-path="url(#clip0_3_12)">
<path d="M77.0003 19.825L20.6684 38.8265C15.997 40.3922 12.0732 41.1776 8.9002 41.1776C5.30687 41.1776 2.6985 40.1812 1.0815 38.186C0.0644544 36.905 -0.233921 35.2809 0.183163 33.3111C0.600246 31.3413 1.71033 29.2444 3.507 27.0128C5.00529 25.2083 7.45966 22.8369 10.8765 19.8962C9.71757 21.3415 8.86771 22.9285 8.3612 24.5932C7.46287 27.6305 8.27137 29.8595 10.7867 31.2828C11.9834 31.9462 13.6293 32.2792 15.7275 32.2792C17.4023 32.2792 19.2888 32.0657 21.387 31.6387L77.0003 19.825Z" fill="black"/>
</g>
<defs>
<clipPath id="clip0_3_12">
<rect width="77" height="61" fill="white"/>
</clipPath>
</defs>
</svg>
